<svg xmlns="http://www.w3.org/2000/svg" width="24" height="24" fill="none">
  <path fill="#fff" d="M18.25 6.15A14.79 14.79 0 0 0 14.53 5c-.17.32-.33.64-.47.98a13.7 13.7 0 0 0-4.12 0c-.14-.34-.3-.66-.48-.98-1.28.22-2.53.6-3.71 1.16a15.24 15.24 0 0 0-2.67 10.3 14.92 14.92 0 0 0 4.55 2.3c.37-.5.7-1.03.98-1.58a9.65 9.65 0 0 1-1.54-.74l.38-.29a10.62 10.62 0 0 0 9.1 0l.38.29c-.5.29-1 .54-1.54.74.28.55.6 1.09.98 1.58 1.64-.5 3.18-1.27 4.55-2.3.38-3.91-.64-7.3-2.67-10.3ZM9 14.38c-.89 0-1.62-.8-1.62-1.8s.7-1.83 1.62-1.83c.9 0 1.64.82 1.62 1.82-.02 1-.72 1.81-1.62 1.81Zm5.98 0c-.89 0-1.62-.8-1.62-1.8s.7-1.83 1.62-1.83c.91 0 1.63.82 1.62 1.82-.02 1-.72 1.81-1.62 1.81Z"/>
</svg>
