<svg width="45" height="18" viewBox="0 0 45 18" fill="none" xmlns="http://www.w3.org/2000/svg">
<g clip-path="url(#clip0_12071_251451)">
<path d="M4.55701 18H45V0H4.55701V18Z" fill="#B4C2DE" fill-opacity="0.4"/>
<path d="M9.64515 9.28665V11.8105H11.2207C11.5952 11.8105 11.9058 11.6861 12.1524 11.4373C12.4047 11.1884 12.5308 10.8931 12.5308 10.5495C12.5308 10.2134 12.4047 9.91995 12.1524 9.67109C11.9058 9.4148 11.5952 9.28665 11.2207 9.28665H9.64515ZM9.64515 12.7001V15.627H8.70398V8.39893H11.2C11.8343 8.39893 12.3727 8.60693 12.8169 9.02479C13.2668 9.44266 13.4926 9.94966 13.4926 10.5495C13.4926 11.1624 13.2668 11.6731 12.8169 12.0836C12.3802 12.494 11.8418 12.7001 11.2 12.7001H9.64515Z" fill="#07070B"/>
<path d="M14.7912 14.1113C14.7912 14.3546 14.8948 14.557 15.1037 14.7186C15.3108 14.8802 15.5555 14.96 15.834 14.96C16.2293 14.96 16.5832 14.8152 16.8938 14.5254C17.2044 14.2376 17.3587 13.8977 17.3587 13.5059C17.0651 13.2774 16.6566 13.1641 16.1315 13.1641C15.7493 13.1641 15.4312 13.2533 15.1752 13.4353C14.9192 13.6173 14.7912 13.8439 14.7912 14.1113ZM16.0091 10.5195C16.7037 10.5195 17.2533 10.7015 17.6561 11.0693C18.059 11.4351 18.2604 11.9384 18.2604 12.5773V15.6268H17.3587V14.9396H17.3192C16.9296 15.506 16.41 15.7883 15.7625 15.7883C15.211 15.7883 14.7479 15.6268 14.3771 15.3036C14.0044 14.9805 13.8199 14.5756 13.8199 14.0927C13.8199 13.5801 14.0157 13.1734 14.4072 12.8707C14.8006 12.568 15.3239 12.4157 15.9771 12.4157C16.538 12.4157 16.9973 12.5178 17.3587 12.7184V12.5067C17.3587 12.1836 17.2289 11.9106 16.971 11.684C16.7112 11.4593 16.4082 11.346 16.0599 11.346C15.5348 11.346 15.1188 11.5651 14.8119 12.0016L13.9837 11.4871C14.4392 10.8408 15.115 10.5195 16.0091 10.5195Z" fill="#07070B"/>
<path d="M25.1971 15.7065C24.7868 15.7065 24.4479 15.5821 24.1788 15.3332C23.9096 15.0843 23.7703 14.737 23.7647 14.2932V11.5278H22.8837V10.6791H23.7647V9.16553H24.7058V10.6791H25.9331V11.5278H24.7058V13.9905C24.7058 14.321 24.7698 14.5439 24.8997 14.6628C25.0296 14.7798 25.1764 14.8392 25.3402 14.8392C25.4155 14.8392 25.4889 14.8299 25.5604 14.8132C25.6319 14.7965 25.6978 14.7742 25.7599 14.7482L26.0555 15.5765C25.8108 15.6638 25.5246 15.7065 25.1971 15.7065ZM19.3242 10.6791H20.224V11.487H20.2654C20.544 10.8556 21.1219 10.538 21.9934 10.538L22.1891 10.5584V11.5278L21.7694 11.487C21.3327 11.487 20.9731 11.6207 20.6889 11.8863C20.4066 12.1519 20.2654 12.4899 20.2654 12.9003V15.6266H19.3242V10.6791Z" fill="#07070B"/>
<path d="M26.8834 10.6792H27.7851V11.3664H27.8246C27.9676 11.125 28.1879 10.9225 28.4853 10.761C28.7827 10.5994 29.0895 10.5195 29.4114 10.5195C30.025 10.5195 30.4975 10.6922 30.8288 11.0377C31.1582 11.385 31.3239 11.8771 31.3239 12.5178V15.6268H30.3827V12.5773C30.362 11.7694 29.9497 11.3664 29.146 11.3664C28.7695 11.3664 28.4552 11.5168 28.2029 11.8158C27.9507 12.1148 27.8246 12.4733 27.8246 12.8911V15.6268H26.8834V10.6792Z" fill="#07070B"/>
<path d="M33.1763 12.5568H36.0507C36.0243 12.2151 35.8831 11.931 35.6271 11.7044C35.3712 11.4797 35.0286 11.3664 34.5975 11.3664C34.2436 11.3664 33.9387 11.4741 33.6827 11.6895C33.4267 11.905 33.2573 12.1947 33.1763 12.5568ZM34.6803 15.7883C33.9443 15.7883 33.3363 15.5395 32.8601 15.0399C32.382 14.5422 32.1429 13.9144 32.1429 13.153C32.1429 12.399 32.3745 11.7713 32.8394 11.2698C33.3025 10.7702 33.8954 10.5195 34.6182 10.5195C35.3617 10.5195 35.9547 10.7554 36.3933 11.2308C36.8337 11.7044 37.054 12.3693 37.054 13.2236L37.0445 13.3257H33.1048C33.118 13.8086 33.2818 14.2004 33.5961 14.4957C33.9086 14.7929 34.285 14.9396 34.7217 14.9396C35.3222 14.9396 35.7928 14.6443 36.1335 14.0519L36.9711 14.4549C36.7471 14.8727 36.4347 15.1996 36.0356 15.4336C35.6366 15.6695 35.1848 15.7883 34.6803 15.7883Z" fill="#07070B"/>
<path d="M38.855 15.6262H37.912V10.6787H38.8136V11.4866H38.855C38.9492 11.2248 39.1449 11.0019 39.4423 10.8162C39.7397 10.6305 40.0315 10.5376 40.3176 10.5376C40.5906 10.5376 40.8221 10.5785 41.0122 10.6602L40.7261 11.5572C40.6113 11.5108 40.4268 11.4866 40.1746 11.4866C39.8188 11.4866 39.5101 11.6278 39.2484 11.9119C38.9849 12.1942 38.855 12.5229 38.855 12.8999V15.6262Z" fill="#07070B"/>
<path d="M10.8366 4.17517V4.80475H12.3651C12.3162 5.20404 12.1486 5.51233 11.8644 5.73519C11.5858 5.95248 11.2432 6.0602 10.8366 6.0602C10.3642 6.0602 9.967 5.89677 9.64324 5.57176C9.32136 5.24861 9.15948 4.85304 9.15948 4.38317C9.15948 3.91331 9.32136 3.51773 9.64324 3.19458C9.967 2.86958 10.3642 2.70615 10.8366 2.70615C11.2771 2.70615 11.6611 2.85658 11.9886 3.15558L12.4404 2.71172C11.9867 2.28642 11.4522 2.07471 10.8366 2.07471C10.4188 2.07471 10.0216 2.18057 9.64888 2.39043C9.27995 2.59657 8.99007 2.88072 8.77736 3.24101C8.56842 3.59387 8.46301 3.97459 8.46301 4.38317C8.46301 4.79546 8.56842 5.17804 8.77736 5.5309C8.9863 5.88748 9.27618 6.16977 9.64888 6.37592C10.0216 6.58578 10.4188 6.69164 10.8366 6.69164C11.4672 6.69164 11.9905 6.49663 12.4046 6.10663C12.8169 5.71848 13.022 5.20776 13.022 4.56889C13.022 4.41846 13.0107 4.2866 12.9881 4.17517H10.8366Z" fill="#07070B"/>
<path d="M15.3617 5.84707C15.198 6.01979 14.9984 6.10707 14.7632 6.10707C14.5222 6.10707 14.3208 6.01979 14.157 5.84707C13.9933 5.67435 13.9123 5.46078 13.9123 5.20634C13.9123 4.94263 13.9933 4.72905 14.157 4.56376C14.3208 4.39105 14.5222 4.30562 14.7632 4.30562C15.0022 4.30562 15.2036 4.39105 15.3674 4.56376C15.5311 4.72905 15.6121 4.94263 15.6121 5.20634C15.6121 5.45706 15.5293 5.67064 15.3617 5.84707ZM14.7632 3.71875C14.3321 3.71875 13.9726 3.86175 13.6846 4.14776C13.3947 4.42819 13.2498 4.78105 13.2498 5.20634C13.2498 5.62235 13.3966 5.97521 13.6883 6.26307C13.9782 6.54908 14.3359 6.69208 14.7632 6.69208C15.1886 6.69208 15.5462 6.54908 15.8342 6.26307C16.1278 5.97521 16.2747 5.62235 16.2747 5.20634C16.2747 4.78105 16.1278 4.42819 15.8342 4.14776C15.5462 3.86175 15.1886 3.71875 14.7632 3.71875Z" fill="#07070B"/>
<path d="M23.1904 6.60098H23.8511V2.23291H23.1904V6.60098Z" fill="#07070B"/>
<path d="M18.6593 5.84707C18.4956 6.01979 18.2961 6.10707 18.0589 6.10707C17.8198 6.10707 17.6184 6.01979 17.4546 5.84707C17.2909 5.67435 17.2099 5.46078 17.2099 5.20634C17.2099 4.94263 17.2909 4.72905 17.4546 4.56376C17.6184 4.39105 17.8198 4.30562 18.0589 4.30562C18.2998 4.30562 18.5012 4.39105 18.665 4.56376C18.8288 4.72905 18.9097 4.94263 18.9097 5.20634C18.9097 5.45706 18.8269 5.67064 18.6593 5.84707ZM18.0589 3.71875C17.6297 3.71875 17.2702 3.86175 16.9822 4.14776C16.6923 4.42819 16.5474 4.78105 16.5474 5.20634C16.5474 5.62235 16.6942 5.97521 16.9878 6.26307C17.2758 6.54908 17.6335 6.69208 18.0589 6.69208C18.4862 6.69208 18.8438 6.54908 19.1318 6.26307C19.4255 5.97521 19.5723 5.62235 19.5723 5.20634C19.5723 4.78105 19.4255 4.42819 19.1318 4.14776C18.8438 3.86175 18.4862 3.71875 18.0589 3.71875Z" fill="#07070B"/>
<path d="M25.0558 4.54148C25.2234 4.37619 25.4097 4.29447 25.6149 4.29447C25.7429 4.29447 25.8596 4.32233 25.9631 4.38176C26.0648 4.43933 26.1363 4.51548 26.1739 4.60833L24.8281 5.15992C24.8187 4.9092 24.8958 4.70305 25.0558 4.54148ZM25.6657 6.10707C25.3344 6.10707 25.0916 5.95664 24.9354 5.65578L26.9495 4.83491L26.8817 4.66591C26.8271 4.52662 26.7594 4.39847 26.6728 4.28147C26.5881 4.16633 26.4902 4.06604 26.3791 3.98061C26.2681 3.89704 26.1476 3.83204 26.014 3.78747C25.8803 3.74104 25.741 3.71875 25.5923 3.71875C25.1895 3.71875 24.8507 3.8599 24.5758 4.14219C24.3067 4.42633 24.1711 4.78105 24.1711 5.20634C24.1711 5.62606 24.3142 5.97893 24.5984 6.26307C24.8845 6.54908 25.2403 6.69208 25.6657 6.69208C26.1984 6.69208 26.6163 6.47293 26.9212 6.03279L26.4074 5.69478C26.221 5.96964 25.9744 6.10707 25.6657 6.10707Z" fill="#07070B"/>
<path d="M21.9179 5.85264C21.7617 6.02164 21.5716 6.10707 21.3457 6.10707C21.1104 6.10707 20.9109 6.01978 20.7471 5.84707C20.5871 5.67435 20.508 5.46263 20.508 5.21192C20.508 4.95563 20.589 4.74205 20.7527 4.56933C20.9203 4.3929 21.1179 4.30562 21.3457 4.30562C21.5753 4.30562 21.7654 4.39105 21.9179 4.56376C22.0723 4.74019 22.1513 4.95563 22.1513 5.21192C22.1513 5.46263 22.0723 5.67621 21.9179 5.85264ZM22.1061 4.05118H22.0817C21.8916 3.83018 21.628 3.71875 21.2892 3.71875C20.9014 3.71875 20.5626 3.86547 20.2746 4.1589C19.9885 4.45048 19.8455 4.80148 19.8455 5.21192C19.8455 5.61678 19.9885 5.96593 20.2746 6.2575C20.5664 6.54722 20.9052 6.69208 21.2892 6.69208C21.628 6.69208 21.8916 6.57879 22.0817 6.35408H22.1061V6.50636C22.1061 7.12852 21.837 7.44052 21.3005 7.44052C21.1292 7.44052 20.9767 7.39223 20.845 7.2938C20.7113 7.19723 20.6097 7.06909 20.5419 6.91123L19.9659 7.14709C20.0224 7.27895 20.0958 7.39781 20.1824 7.50552C20.2709 7.61138 20.3725 7.70424 20.4873 7.78038C20.604 7.85838 20.7302 7.91781 20.8676 7.96053C21.005 8.0051 21.148 8.02553 21.3005 8.02553C21.7504 8.02553 22.1005 7.89181 22.3527 7.62438C22.6068 7.35509 22.733 6.97251 22.733 6.47851V3.80975H22.1061V4.05118Z" fill="#07070B"/>
<path opacity="0.4" d="M0 17.9996H4.80184V-0.00195312H0V17.9996Z" fill="#B4C2DE" fill-opacity="0.4"/>
</g>
<defs>
<clipPath id="clip0_12071_251451">
<rect width="45" height="18" fill="white"/>
</clipPath>
</defs>
</svg>
