<svg xmlns="http://www.w3.org/2000/svg" width="24" height="24" fill="none">
  <g clip-path="url(#a)">
    <path fill="#fff" d="M15.3 4c4.36 0 4.7.34 4.7 4.7v6.59c0 4.37-.34 4.71-4.7 4.71H8.7C4.35 20 4 19.66 4 15.3V8.7C4 4.35 4.34 4 8.7 4h6.6ZM9.2 16.4V9.9h-2v6.5h2Zm-1-7.44a1.18 1.18 0 1 0 0-2.36 1.18 1.18 0 0 0 0 2.36Zm8.6 7.44v-3.57c0-1.75-.38-3.1-2.43-3.1-.98 0-1.64.54-1.91 1.05h-.03v-.89H10.5v6.51h2.02v-3.22c0-.85.17-1.67 1.22-1.67 1.04 0 1.05.97 1.05 1.72v3.17h2.02Z"/>
  </g>
  <defs>
    <clipPath id="a">
      <path fill="#fff" d="M0 0h24v24H0z"/>
    </clipPath>
  </defs>
</svg>
