<svg width="31" height="22" viewBox="0 0 31 22" fill="none" xmlns="http://www.w3.org/2000/svg">
<path d="M18.6955 5.23438H12.2883V16.7653H18.6955V5.23438Z" fill="#5B5B5E"/>
<path d="M12.6951 10.9998C12.6941 9.88932 12.9454 8.79313 13.4299 7.79425C13.9145 6.79538 14.6196 5.91999 15.4919 5.23437C14.4117 4.38404 13.1144 3.85523 11.7482 3.70839C10.3821 3.56154 9.00228 3.80258 7.76648 4.40397C6.53067 5.00535 5.48875 5.94281 4.7598 7.1092C4.03085 8.27558 3.64429 9.62382 3.64429 10.9998C3.64429 12.3758 4.03085 13.7241 4.7598 14.8905C5.48875 16.0568 6.53067 16.9943 7.76648 17.5957C9.00228 18.1971 10.3821 18.4381 11.7482 18.2913C13.1144 18.1444 14.4117 17.6156 15.4919 16.7653C14.6196 16.0797 13.9145 15.2043 13.4299 14.2054C12.9454 13.2065 12.6941 12.1103 12.6951 10.9998Z" fill="#23252D"/>
<path d="M27.3392 10.9998C27.3392 12.3758 26.9527 13.724 26.2238 14.8904C25.4949 16.0568 24.453 16.9943 23.2172 17.5957C21.9814 18.1971 20.6016 18.4381 19.2355 18.2913C17.8694 18.1444 16.5721 17.6156 15.4919 16.7653C16.3635 16.079 17.068 15.2034 17.5525 14.2047C18.037 13.206 18.2887 12.1102 18.2887 10.9998C18.2887 9.88949 18.037 8.79365 17.5525 7.79493C17.068 6.79621 16.3635 5.92068 15.4919 5.23437C16.5721 4.38404 17.8694 3.85523 19.2355 3.70838C20.6016 3.56154 21.9814 3.80259 23.2172 4.40398C24.453 5.00537 25.4949 5.94284 26.2238 7.10922C26.9527 8.2756 27.3392 9.62384 27.3392 10.9998Z" fill="#4C525F"/>
</svg>
