<svg xmlns="http://www.w3.org/2000/svg" width="24" height="24" fill="none">
  <g clip-path="url(#a)">
    <path fill="#fff" d="M15.3 4c4.36 0 4.7.34 4.7 4.7v6.59c0 4.37-.34 4.71-4.7 4.71H8.7C4.35 20 4 19.66 4 15.3V8.7C4 4.35 4.34 4 8.7 4h6.6ZM9.7 14.96a2.96 2.96 0 1 0 0-5.92 2.96 2.96 0 0 0 0 5.92Zm4.73-.14c.81 0 1.47-1.26 1.47-2.82 0-1.56-.66-2.82-1.47-2.82-.8 0-1.47 1.26-1.47 2.82 0 1.56.66 2.82 1.47 2.82Zm2.28-.3c.28 0 .51-1.13.51-2.52 0-1.4-.23-2.52-.51-2.52s-.51 1.13-.51 2.52c0 1.4.23 2.52.51 2.52Z"/>
  </g>
  <defs>
    <clipPath id="a">
      <path fill="#fff" d="M0 0h24v24H0z"/>
    </clipPath>
  </defs>
</svg>
