<svg xmlns="http://www.w3.org/2000/svg" width="24" height="24" fill="none">
  <path fill="#fff" fill-rule="evenodd" d="M20 8.7c0-4.36-.34-4.7-4.7-4.7H8.7C4.35 4 4 4.34 4 8.7v6.6c0 4.36.34 4.7 4.7 4.7h6.6c4.36 0 4.7-.34 4.7-4.71V8.71Zm-4.2.64c-.1.92-.8 5.56-.95 6.02-.13.4-.27.74-.53.74s-.54-.09-.82-.29c-.29-.2-2.14-1.45-2.4-1.6-.23-.15-.47-.5-.13-.85l1.73-1.7.83-.81c.18-.18 0-.41-.21-.23-.22.18-3.3 2.23-3.56 2.4-.25.15-.7.25-1.1.14-.4-.11-1.1-.32-1.37-.42-.26-.1-.36-.19-.36-.35 0-.23.33-.38.67-.53.36-.15 6.6-2.8 7.1-2.98.35-.13.66-.18.86-.08.17.08.26.27.24.54Z" clip-rule="evenodd"/>
</svg>
