<svg width="56" height="24" viewBox="0 0 56 24" fill="none" xmlns="http://www.w3.org/2000/svg">
<g clip-path="url(#clip0_12071_231190)">
<path d="M31.4839 4.60889H0V20.6089H31.9017C29.9594 18.4403 28.7728 15.5445 28.7728 12.3633C28.7728 9.41686 29.7903 6.715 31.4839 4.60889Z" fill="#303036"/>
<path d="M56.5569 4.60889H49.7334C51.427 6.715 52.4445 9.41686 52.4445 12.3633C52.4445 15.5445 51.2579 18.4398 49.3156 20.6089H56.5564V4.60889H56.5569Z" fill="#303036"/>
<path d="M3.86446 14.7065V17.1704H3.55334V14.7065H3.86446Z" fill="white"/>
<path d="M4.54424 16.801C4.66972 16.8795 4.86157 16.9427 5.05342 16.9427C5.36142 16.9427 5.54342 16.7727 5.54342 16.5232C5.54342 16.2953 5.40861 16.1592 5.11513 16.0283C4.77187 15.8876 4.51365 15.671 4.51365 15.3342C4.51365 14.9537 4.81802 14.6724 5.27587 14.6724C5.49883 14.6724 5.67046 14.7278 5.76431 14.7827L5.68083 15.0374C5.60616 14.9917 5.45839 14.9301 5.26291 14.9301C4.95076 14.9301 4.82528 15.1252 4.82528 15.2936C4.82528 15.5267 4.96994 15.635 5.28157 15.7767C5.66683 15.9544 5.85557 16.1628 5.85557 16.4975C5.85557 16.8898 5.56831 17.2025 5.03683 17.2025C4.8175 17.2025 4.58002 17.1357 4.46594 17.0577L4.5432 16.7999L4.54424 16.801Z" fill="white"/>
<path d="M8.34339 15.916C8.34339 16.7842 7.88347 17.2072 7.31932 17.2072C6.75517 17.2072 6.32947 16.7226 6.32947 15.953C6.32947 15.1834 6.76036 14.6694 7.3551 14.6694C7.94984 14.6694 8.34339 15.1674 8.34339 15.916ZM6.65562 15.9483C6.65562 16.4695 6.88791 16.9521 7.33747 16.9521C7.78702 16.9521 8.01673 16.4659 8.01673 15.9288C8.01673 15.4478 7.81036 14.9251 7.33902 14.9251C6.86769 14.9251 6.6551 15.4211 6.6551 15.9483H6.65562Z" fill="white"/>
<path d="M9.74701 17.1703V16.9788L9.98553 16.7252C10.5004 16.2026 10.797 15.8524 10.798 15.4684C10.798 15.2204 10.6819 15.0155 10.3646 15.0155C10.1587 15.0155 9.99953 15.1208 9.90308 15.1958L9.80975 14.975C9.94975 14.8579 10.1665 14.7578 10.4252 14.7578C10.9064 14.7578 11.1097 15.091 11.1097 15.435C11.1097 15.8781 10.7965 16.256 10.3537 16.7124L10.1727 16.9018V16.909H11.1646V17.1703H9.74597H9.74701Z" fill="white"/>
<path d="M13.1444 14.7944V14.9936L12.1794 17.1705H11.8626L12.8187 15.0629V15.0558H11.7386V14.7944H13.1449H13.1444Z" fill="white"/>
<path d="M15.1444 14.7944V14.9936L14.1794 17.1705H13.8626L14.8187 15.0629V15.0558H13.7386V14.7944H15.1449H15.1444Z" fill="white"/>
<path d="M17.0851 15.9643C17.0851 16.7884 16.789 17.2073 16.313 17.2073C15.8733 17.2073 15.583 16.7714 15.5773 15.99C15.5773 15.1906 15.893 14.7578 16.3514 14.7578C16.8098 14.7578 17.0851 15.2081 17.0851 15.9643ZM15.8915 15.989C15.8905 16.5948 16.0548 16.9598 16.3322 16.9598C16.6314 16.9598 16.7704 16.5696 16.7704 15.9756C16.7704 15.3816 16.6382 15.0053 16.3328 15.0053C16.0662 15.0053 15.8905 15.3667 15.891 15.989H15.8915Z" fill="white"/>
<path d="M18.2258 15.0891H18.2186L17.8069 15.3135L17.7462 15.0763L18.2653 14.7944H18.5287V17.1705H18.2258V15.0891Z" fill="white"/>
<path d="M5.69591 11.2047C5.69591 11.3346 5.67828 11.4655 5.6425 11.5975C5.60673 11.7294 5.54399 11.8485 5.45376 11.9558C5.36302 12.0631 5.24065 12.1499 5.08665 12.2166C4.93265 12.2834 4.73458 12.3168 4.49295 12.3168C4.25132 12.3168 4.05376 12.2834 3.89925 12.2166C3.74473 12.1499 3.62443 12.0631 3.53732 11.9558C3.45021 11.8485 3.39006 11.7294 3.35636 11.5975C3.32265 11.4655 3.30554 11.3351 3.30554 11.2047V8.27979H3.76339V11.1523C3.76339 11.2052 3.77065 11.2745 3.78465 11.3608C3.79865 11.447 3.8308 11.5323 3.88058 11.6165C3.93036 11.7007 4.0045 11.773 4.10406 11.8326C4.20362 11.8922 4.33843 11.9224 4.5085 11.9224C4.67858 11.9224 4.81287 11.8927 4.91036 11.8326C5.00784 11.773 5.08095 11.7007 5.12865 11.6165C5.17636 11.5323 5.20643 11.447 5.21887 11.3608C5.23132 11.2745 5.23754 11.2052 5.23754 11.1523V8.27979H5.69539V11.2047H5.69591Z" fill="white"/>
<path d="M6.73914 8.2793H7.36188L8.68202 11.6365H8.69291V8.2793H9.15077V12.2321H8.52802L7.20788 8.87486H7.19699V12.2321H6.73914V8.2793Z" fill="white"/>
<path d="M10.2205 8.2793H10.6783V12.2321H10.2205V8.2793Z" fill="white"/>
<path d="M14.042 10.8096C14.0384 10.9046 14.0311 11.0073 14.0207 11.1181C14.0099 11.229 13.9896 11.3394 13.9596 11.4503C13.9295 11.5612 13.887 11.669 13.832 11.7743C13.777 11.8795 13.707 11.972 13.622 12.051C13.537 12.1301 13.4333 12.1943 13.3104 12.2435C13.188 12.2928 13.0418 12.3175 12.8712 12.3175C12.6866 12.3175 12.5181 12.2892 12.3656 12.2333C12.2132 12.1773 12.0825 12.0741 11.9741 11.9247C11.8658 11.7753 11.7818 11.5715 11.7211 11.3132C11.661 11.055 11.6304 10.7254 11.6304 10.3249C11.6304 9.95578 11.6532 9.63798 11.6993 9.371C11.7455 9.10403 11.8191 8.88326 11.9202 8.70973C12.0213 8.53568 12.1525 8.40681 12.3143 8.3221C12.4756 8.2379 12.6716 8.1958 12.9023 8.1958C13.133 8.1958 13.3218 8.23533 13.469 8.3144C13.6163 8.39346 13.7309 8.49461 13.8123 8.61731C13.8937 8.74053 13.9507 8.87659 13.9824 9.02599C14.0145 9.17539 14.0321 9.32018 14.0358 9.46085H13.5779C13.567 9.36587 13.553 9.26781 13.5354 9.16564C13.5178 9.06398 13.4851 8.97054 13.4369 8.88634C13.3892 8.80214 13.3223 8.7318 13.2373 8.67533C13.1522 8.61937 13.0387 8.59113 12.8966 8.59113C12.7156 8.59113 12.5736 8.63682 12.4709 8.72821C12.3677 8.8196 12.291 8.94436 12.2391 9.10249C12.1878 9.26062 12.1546 9.44339 12.1406 9.65081C12.1266 9.85823 12.1193 10.078 12.1193 10.3095C12.1193 10.5698 12.1318 10.7998 12.1567 11.0001C12.1816 11.2003 12.2225 11.3692 12.279 11.5058C12.3356 11.6429 12.4123 11.7466 12.5077 11.8169C12.6036 11.8872 12.7239 11.9222 12.8696 11.9222C13.033 11.9222 13.1605 11.8836 13.2528 11.8061C13.3451 11.7291 13.413 11.6341 13.4576 11.5217C13.5022 11.4093 13.5313 11.2891 13.5453 11.1608C13.5593 11.0324 13.5717 10.9159 13.5826 10.8101H14.0404L14.042 10.8096Z" fill="white"/>
<path d="M14.9313 8.2793H16.9276V8.67463H15.3891V9.97099H16.8265V10.3663H15.3891V11.8367H16.9276V12.2321H14.9313V8.2793Z" fill="white"/>
<path d="M17.8961 8.2793H19.1525C19.3122 8.2793 19.4605 8.29675 19.5969 8.33218C19.7332 8.3676 19.8525 8.42459 19.9536 8.50366C20.0547 8.58272 20.1346 8.68797 20.1932 8.81992C20.2517 8.95187 20.2808 9.11257 20.2808 9.30202C20.2808 9.47041 20.2585 9.60955 20.2144 9.71839C20.1698 9.82724 20.1149 9.91708 20.0495 9.98742C19.9837 10.0578 19.9126 10.1132 19.8364 10.1533C19.7602 10.1938 19.6902 10.2277 19.6259 10.2559V10.2667C19.7503 10.2986 19.8478 10.3371 19.9189 10.3828C19.9899 10.4284 20.0485 10.4813 20.0946 10.5409C20.1372 10.5974 20.1693 10.6816 20.1906 10.794C20.2118 10.9064 20.2269 11.0286 20.2357 11.1601C20.2445 11.292 20.2517 11.4255 20.2569 11.5605C20.2621 11.6961 20.2735 11.8141 20.2917 11.9163C20.2989 11.9692 20.3202 12.0164 20.3554 12.0585C20.3907 12.1006 20.4192 12.1325 20.4405 12.1535V12.2326H19.9137C19.8888 12.2079 19.8686 12.1612 19.8525 12.0929C19.8364 12.0246 19.8224 11.9446 19.81 11.8532C19.7975 11.7618 19.7877 11.6642 19.7809 11.5605C19.7737 11.4568 19.7669 11.3587 19.7597 11.2653C19.7524 11.1724 19.7457 11.0877 19.7384 11.0122C19.7312 10.9367 19.7208 10.8828 19.7063 10.8515C19.6492 10.7041 19.5626 10.6045 19.4454 10.5537C19.3283 10.5029 19.181 10.4772 19.0037 10.4772H18.3545V12.2321H17.8966V8.2793H17.8961ZM18.354 10.0819H19.0726C19.1613 10.0819 19.2489 10.0696 19.336 10.0449C19.4232 10.0203 19.4999 9.97921 19.5678 9.92119C19.6352 9.86318 19.6892 9.7877 19.7301 9.69478C19.7711 9.60185 19.7913 9.48684 19.7913 9.34976C19.7913 9.10743 19.7249 8.93441 19.5917 8.8307C19.4584 8.72699 19.2645 8.67514 19.0089 8.67514H18.354V10.0824V10.0819Z" fill="white"/>
<path d="M21.6217 8.67463H20.6318V8.2793H23.0699V8.67463H22.0801V12.2321H21.6222V8.67463H21.6217Z" fill="white"/>
<path d="M35.5921 12.5926C35.5921 12.762 35.5843 12.9278 35.5688 13.0906C35.5532 13.2533 35.5159 13.3976 35.4563 13.5239C35.3971 13.6502 35.3095 13.7524 35.1934 13.8299C35.0772 13.9079 34.9206 13.947 34.7226 13.947C34.5245 13.947 34.3674 13.9079 34.2517 13.8299C34.1356 13.7519 34.0485 13.6497 33.9894 13.5239C33.9303 13.3976 33.8929 13.2533 33.8768 13.0906C33.8613 12.9278 33.8535 12.762 33.8535 12.5926V10.1328H34.386V12.5926C34.386 12.7122 34.3902 12.8185 34.3985 12.9114C34.4068 13.0043 34.4234 13.0834 34.4472 13.1481C34.4711 13.2128 34.5053 13.2626 34.5488 13.2975C34.5924 13.3324 34.6505 13.3499 34.7226 13.3499C34.7946 13.3499 34.8532 13.3324 34.8963 13.2975C34.9393 13.2626 34.9735 13.2128 34.9979 13.1481C35.0223 13.0834 35.0383 13.0043 35.0466 12.9114C35.0549 12.8185 35.0591 12.7122 35.0591 12.5926V10.1328H35.5916V12.5926H35.5921Z" fill="#E5E5E6"/>
<path d="M36.0811 10.1328H36.6136L37.3089 12.7368H37.3162V10.1328H37.7942V13.8674H37.2617L36.5664 11.2531H36.5591V13.8674H36.0811V10.1328Z" fill="#E5E5E6"/>
<path d="M38.2802 10.1328H38.8127V13.8674H38.2802V10.1328Z" fill="#E5E5E6"/>
<path d="M40.8665 12.5032C40.8665 12.666 40.8592 12.8328 40.8447 13.0038C40.8302 13.1748 40.796 13.3298 40.7415 13.4695C40.6871 13.6091 40.6062 13.7236 40.4988 13.8129C40.3915 13.9028 40.2432 13.9475 40.055 13.9475C39.8668 13.9475 39.7097 13.9018 39.5987 13.8104C39.4877 13.719 39.4037 13.5865 39.3467 13.412C39.2897 13.2379 39.2539 13.0218 39.2378 12.7646C39.2223 12.5073 39.2145 12.2142 39.2145 11.8856C39.2145 11.6068 39.2223 11.3547 39.2378 11.1288C39.2534 10.9029 39.2902 10.7104 39.3483 10.5512C39.4063 10.3921 39.4908 10.2694 39.6018 10.1826C39.7128 10.0963 39.8637 10.0532 40.0545 10.0532C40.2453 10.0532 40.391 10.0897 40.4983 10.1626C40.6057 10.2355 40.6865 10.3305 40.741 10.4465C40.7954 10.5625 40.8297 10.6955 40.8442 10.8449C40.8587 10.9943 40.866 11.1453 40.866 11.2982H40.3661C40.3614 11.2418 40.3573 11.1761 40.3537 11.1016C40.35 11.0272 40.3386 10.9563 40.3194 10.8901C40.3003 10.8239 40.2707 10.7674 40.2308 10.7207C40.1908 10.6745 40.1323 10.6508 40.055 10.6508C39.9777 10.6508 39.9186 10.6765 39.8777 10.7278C39.8367 10.7792 39.8066 10.8572 39.7869 10.962C39.7677 11.0667 39.7563 11.1961 39.7527 11.3501C39.7491 11.5041 39.7475 11.6828 39.7475 11.8856C39.7475 12.1115 39.7491 12.3148 39.7527 12.4955C39.7563 12.6762 39.7677 12.8298 39.7869 12.9561C39.8061 13.0824 39.8362 13.1794 39.8777 13.2472C39.9186 13.3154 39.9777 13.3493 40.055 13.3493C40.1323 13.3493 40.1919 13.3319 40.2344 13.297C40.2764 13.2621 40.3075 13.2092 40.3267 13.1378C40.3459 13.0664 40.3573 12.9776 40.3609 12.8713C40.3646 12.7651 40.3661 12.6424 40.3661 12.5027H40.866L40.8665 12.5032Z" fill="#E5E5E6"/>
<path d="M41.2357 10.1328H42.6487V10.7304H41.7682V11.6217H42.5942V12.2193H41.7682V13.2698H42.6668V13.8674H41.2357V10.1328Z" fill="#E5E5E6"/>
<path d="M43.0433 10.1329H44.1047C44.3193 10.1329 44.4827 10.215 44.5936 10.3793C44.7046 10.5436 44.7601 10.7803 44.7601 11.0888C44.7601 11.2413 44.7492 11.3671 44.7274 11.4647C44.7056 11.5627 44.6776 11.6423 44.6439 11.7039C44.6102 11.7655 44.5729 11.8127 44.5314 11.8456C44.4905 11.879 44.4495 11.9072 44.408 11.9303V11.9401C44.4879 11.9734 44.5506 12.015 44.5962 12.0643C44.6419 12.1141 44.6766 12.1788 44.6994 12.2584C44.7222 12.338 44.7362 12.435 44.7409 12.5495C44.7456 12.664 44.7482 12.8026 44.7482 12.9654C44.7482 13.0249 44.7487 13.0963 44.7502 13.1795C44.7513 13.2626 44.7554 13.3448 44.7627 13.4259C44.7699 13.507 44.7808 13.5804 44.7953 13.6451C44.8099 13.7098 44.8301 13.754 44.8571 13.7771V13.8669H44.2773C44.2628 13.7442 44.2519 13.6179 44.2447 13.4885C44.2374 13.3591 44.2328 13.237 44.2302 13.1225C44.2276 13.008 44.226 12.9058 44.225 12.8165C44.2239 12.7266 44.2208 12.6589 44.2162 12.6121C44.2063 12.5259 44.1876 12.4597 44.1602 12.4129C44.1322 12.3662 44.1005 12.3323 44.0642 12.3108C44.0279 12.2892 43.9896 12.2769 43.9481 12.2733C43.9071 12.2702 43.8682 12.2681 43.8319 12.2681H43.5748V13.8664H43.0422V10.1318L43.0433 10.1329ZM43.5758 11.6716H43.833C43.9704 11.6716 44.071 11.6325 44.1337 11.5545C44.1965 11.4765 44.2281 11.3645 44.2281 11.2182C44.2281 11.135 44.2239 11.0632 44.2156 11.0016C44.2073 10.9399 44.1887 10.8896 44.1596 10.8496C44.1306 10.8095 44.0902 10.7798 44.0383 10.7597C43.9865 10.7397 43.917 10.73 43.8299 10.73H43.5763V11.671L43.5758 11.6716Z" fill="#E5E5E6"/>
<path d="M45.4595 10.7304H44.8871V10.1328H46.5645V10.7304H45.992V13.8674H45.4595V10.7304Z" fill="#E5E5E6"/>
<path d="M45.7924 8.40672C44.5589 6.51017 42.464 5.37758 40.1888 5.37758C37.9135 5.37758 35.8187 6.51017 34.5852 8.40672L34.498 8.35127C35.7508 6.42495 37.8777 5.2749 40.1888 5.2749C42.4998 5.2749 44.6268 6.42495 45.8795 8.35127L45.7924 8.40672Z" fill="#6D6D76"/>
<path d="M40.1888 8.02148C38.6779 8.02148 37.2286 7.59946 35.9982 6.80058L36.0552 6.71484C37.2685 7.50242 38.6981 7.9188 40.1888 7.9188C41.6796 7.9188 43.1091 7.50242 44.3225 6.71484L44.3795 6.80058C43.1491 7.59946 41.7003 8.02148 40.1888 8.02148Z" fill="#6D6D76"/>
<path d="M44.1275 8.40242C43.4908 7.21798 42.5533 6.35185 41.4888 5.96371L41.5245 5.86719C42.6134 6.26406 43.5701 7.14764 44.2193 8.35416L44.1275 8.40242Z" fill="#6D6D76"/>
<path d="M36.2506 8.40242L36.1588 8.35416C36.808 7.14764 37.7647 6.26406 38.8536 5.86719L38.8893 5.96371C37.8243 6.35185 36.8873 7.21798 36.2501 8.40242H36.2506Z" fill="#6D6D76"/>
<path d="M42.1866 8.39451C41.8579 7.36666 41.3902 6.60681 40.8701 6.25512L40.9287 6.17041C41.468 6.53493 41.9497 7.31378 42.2857 8.36371L42.1866 8.39451Z" fill="#6D6D76"/>
<path d="M38.191 8.39449L38.0919 8.36368C38.4279 7.31427 38.9096 6.53542 39.4489 6.1709L39.5075 6.25561C38.9874 6.6073 38.5202 7.36715 38.191 8.395V8.39449Z" fill="#6D6D76"/>
<path d="M40.1887 6.37403C39.5116 6.37403 38.8655 6.086 38.4154 5.5844L38.4932 5.51611C38.9236 5.99615 39.5411 6.27134 40.1887 6.27134C40.8364 6.27134 41.4544 5.99615 41.8843 5.51611L41.9621 5.5844C41.5125 6.086 40.8659 6.37403 40.1887 6.37403Z" fill="#6D6D76"/>
<path d="M40.2407 6.32275H40.137V8.37897H40.2407V6.32275Z" fill="#6D6D76"/>
<path d="M40.1888 18.6533C37.8783 18.6533 35.7508 17.5033 34.498 15.5769L34.5852 15.5215C35.8187 17.418 37.913 18.5506 40.1888 18.5506C42.4646 18.5506 44.5589 17.418 45.7924 15.5215L45.8795 15.5769C44.6268 17.5033 42.4998 18.6533 40.1888 18.6533Z" fill="#6D6D76"/>
<path d="M44.3225 17.2134C43.1091 16.4258 41.6796 16.0094 40.1888 16.0094C38.6981 16.0094 37.2685 16.4258 36.0552 17.2134L35.9982 17.1276C37.2286 16.3288 38.6774 15.9067 40.1888 15.9067C41.7003 15.9067 43.1491 16.3288 44.3795 17.1276L44.3225 17.2134Z" fill="#6D6D76"/>
<path d="M38.8536 18.0601C37.7647 17.6633 36.808 16.7797 36.1588 15.5732L36.2506 15.5249C36.8873 16.7093 37.8248 17.5755 38.8899 17.9636L38.8541 18.0601H38.8536Z" fill="#6D6D76"/>
<path d="M41.5239 18.0601L41.4882 17.9636C42.5532 17.5755 43.4902 16.7093 44.1274 15.5249L44.2192 15.5732C43.57 16.7797 42.6128 17.6633 41.5245 18.0601H41.5239Z" fill="#6D6D76"/>
<path d="M39.4489 17.7578C38.9101 17.3933 38.4279 16.6144 38.0919 15.5645L38.191 15.5337C38.5202 16.5615 38.9874 17.3214 39.5075 17.6731L39.4489 17.7578Z" fill="#6D6D76"/>
<path d="M40.9287 17.7578L40.8701 17.6731C41.3902 17.3214 41.8574 16.5615 42.1866 15.5337L42.2857 15.5645C41.9497 16.6139 41.468 17.3928 40.9287 17.7578Z" fill="#6D6D76"/>
<path d="M38.4932 18.4121L38.4154 18.3438C38.865 17.8422 39.5116 17.5542 40.1887 17.5542C40.8659 17.5542 41.512 17.8422 41.9621 18.3438L41.8843 18.4121C41.4544 17.9321 40.8364 17.6569 40.1887 17.6569C39.5411 17.6569 38.923 17.9321 38.4932 18.4121Z" fill="#6D6D76"/>
<path d="M40.2407 15.5493H40.137V17.6055H40.2407V15.5493Z" fill="#6D6D76"/>
<path d="M34.8429 6.68785C36.2761 5.26877 38.1817 4.48736 40.2086 4.48736C42.2354 4.48736 44.141 5.26877 45.5742 6.68785C46.8409 7.94211 47.6042 9.56193 47.7644 11.307H50.988C50.6271 5.72314 45.9392 1.3042 40.2086 1.3042C34.4779 1.3042 29.79 5.72263 29.4291 11.307H32.6527C32.8129 9.56193 33.5762 7.94211 34.8429 6.68785Z" fill="#6D6D76"/>
<path d="M45.5741 17.3128C44.141 18.7318 42.2354 19.5133 40.2085 19.5133C38.1816 19.5133 36.2761 18.7318 34.8429 17.3128C33.5704 16.0529 32.8056 14.4238 32.6506 12.6689H29.4275C29.7765 18.2646 34.4696 22.6964 40.2085 22.6964C45.9475 22.6964 50.6406 18.2646 50.9896 12.6689H47.7664C47.6109 14.4233 46.8466 16.0523 45.5741 17.3128Z" fill="#6D6D76"/>
<path d="M40.2091 0.872802C41.7268 0.872802 43.1983 1.16699 44.5833 1.74663C45.9216 2.30728 47.1235 3.10923 48.1559 4.13143C49.1882 5.15364 49.9987 6.34373 50.5644 7.66885C51.1503 9.04017 51.4469 10.4972 51.4469 12C51.4469 13.5028 51.1498 14.9598 50.5644 16.3312C49.9982 17.6563 49.1882 18.8464 48.1559 19.8686C47.1235 20.8908 45.9216 21.6932 44.5833 22.2534C43.1983 22.8335 41.7268 23.1272 40.2091 23.1272C38.6913 23.1272 37.2198 22.833 35.8348 22.2534C34.4965 21.6927 33.2946 20.8908 32.2622 19.8686C31.2299 18.8464 30.4194 17.6563 29.8537 16.3312C29.2678 14.9598 28.9712 13.5028 28.9712 12C28.9712 10.4972 29.2683 9.04017 29.8537 7.66885C30.4199 6.34373 31.2299 5.15364 32.2622 4.13143C33.2946 3.10923 34.4965 2.30676 35.8348 1.74663C37.2198 1.16647 38.6913 0.872802 40.2091 0.872802ZM40.2091 0C33.5155 0 28.0897 5.37287 28.0897 12C28.0897 18.6271 33.516 24 40.2091 24C46.9021 24 52.3284 18.6271 52.3284 12C52.3284 5.37287 46.9021 0 40.2091 0V0Z" fill="#6D6D76"/>
<path d="M32.3923 7.46448L32.061 7.2278C31.7898 7.03424 31.6285 6.92129 31.5762 6.88843C31.5005 6.8412 31.4336 6.84223 31.3765 6.89254C31.3568 6.91051 31.333 6.93772 31.306 6.9752C31.2873 7.00087 31.2713 7.00857 31.2578 6.99882C31.2443 6.98906 31.2495 6.9675 31.2733 6.93464C31.305 6.891 31.3506 6.83093 31.4102 6.75392C31.4699 6.67691 31.5062 6.62916 31.5191 6.61119C31.531 6.59476 31.5611 6.55061 31.6099 6.47924C31.6586 6.40788 31.6928 6.35808 31.7136 6.32933C31.7374 6.29647 31.7566 6.28466 31.7701 6.29441C31.7836 6.30417 31.782 6.32111 31.7644 6.34524C31.7514 6.36321 31.7379 6.38683 31.7239 6.41507C31.6959 6.47257 31.7188 6.5311 31.7929 6.59065C31.8406 6.62916 32.0003 6.7457 32.2715 6.93926L32.5899 7.1667C32.8657 7.36385 33.0949 7.4383 33.2769 7.39106C33.3936 7.36077 33.4931 7.28889 33.5751 7.17646C33.6668 7.05067 33.701 6.9177 33.6782 6.77856C33.6627 6.68307 33.6093 6.58809 33.519 6.49413C33.4579 6.43252 33.3547 6.34935 33.209 6.24564L32.9248 6.04284C32.6536 5.84877 32.4919 5.73582 32.4395 5.70296C32.3633 5.65573 32.2969 5.65676 32.2393 5.70707C32.2196 5.72504 32.1973 5.7502 32.1735 5.78305C32.1548 5.80873 32.1388 5.81643 32.1253 5.80667C32.1118 5.79692 32.1165 5.77638 32.1393 5.74506C32.1875 5.67935 32.2523 5.59463 32.3342 5.49144C32.3373 5.48682 32.3622 5.45088 32.4079 5.38311C32.4535 5.31534 32.4893 5.26451 32.5142 5.23011C32.537 5.19879 32.5551 5.1875 32.5691 5.19725C32.5826 5.20701 32.5795 5.22549 32.5603 5.25219C32.5473 5.27016 32.5339 5.29377 32.5199 5.32201C32.4919 5.37951 32.5147 5.43804 32.5888 5.4976C32.6365 5.5361 32.7962 5.65265 33.0669 5.84569L33.3101 6.01922C33.4646 6.12961 33.5808 6.23075 33.6585 6.32265C33.7664 6.44998 33.826 6.58244 33.8379 6.72106C33.8551 6.92489 33.7959 7.11947 33.6606 7.30532C33.5009 7.52404 33.3277 7.65342 33.14 7.69244C32.9217 7.73916 32.6723 7.66266 32.3923 7.46294V7.46448Z" fill="white"/>
<path d="M33.8587 4.73005L34.5836 5.64752C34.6992 5.79282 34.7874 5.85597 34.8475 5.83697C34.8532 5.83492 34.8854 5.81746 34.9434 5.78358C34.9927 5.75637 35.0207 5.74764 35.0274 5.75637C35.0383 5.77125 35.0269 5.79128 34.9922 5.81643C34.9351 5.85802 34.875 5.90063 34.8117 5.94325C34.7485 5.98637 34.7137 6.00999 34.708 6.0141C34.7096 6.01307 34.6821 6.03515 34.6251 6.08033C34.568 6.12551 34.5167 6.16504 34.47 6.19944C34.4368 6.22357 34.4151 6.22819 34.4037 6.2133C34.3959 6.20303 34.4104 6.18198 34.4472 6.15015C34.4721 6.12756 34.496 6.10497 34.5193 6.08341C34.5411 6.05363 34.5421 6.01615 34.5224 5.97097C34.5043 5.93144 34.4576 5.85956 34.3824 5.75637L33.4159 4.42252C33.3796 4.37118 33.3703 4.33832 33.3884 4.32548C33.4003 4.31676 33.4454 4.31932 33.5232 4.3337C33.7441 4.37426 34.1548 4.44203 34.7557 4.53701C35.0264 4.58219 35.3183 4.63045 35.631 4.68179L35.6424 4.67358L34.8714 3.68988C34.8288 3.63597 34.7972 3.60054 34.7775 3.58309C34.7319 3.54715 34.6878 3.53483 34.6448 3.54561C34.6157 3.55331 34.5727 3.57795 34.5157 3.61954C34.4918 3.637 34.4747 3.63905 34.4648 3.6257C34.455 3.61235 34.4695 3.5913 34.5084 3.56255C34.5535 3.52969 34.6085 3.49119 34.6728 3.44703C34.7376 3.40288 34.7749 3.37721 34.7853 3.36951C34.7868 3.36848 34.8123 3.34795 34.8615 3.30841C34.9108 3.26888 34.9574 3.23294 35.001 3.20111C35.0357 3.17595 35.0575 3.16979 35.0679 3.18314C35.0783 3.19649 35.0694 3.21292 35.0425 3.23294C34.9673 3.28788 34.9398 3.34589 34.96 3.40699C34.9725 3.43933 34.9984 3.48349 35.0383 3.53945L36.0655 4.96314C36.0982 5.01038 36.106 5.04067 36.0878 5.0535C36.0712 5.06583 36.0334 5.06788 35.9748 5.06069C35.7254 5.02527 35.3406 4.9693 34.8211 4.89281C34.6448 4.86816 34.4415 4.83428 34.2118 4.79115C34.0951 4.76856 33.9795 4.74648 33.8654 4.72441L33.8587 4.72954V4.73005Z" fill="white"/>
<path d="M36.6333 3.88937L36.4445 3.43859C36.317 3.13311 36.2392 2.95239 36.2122 2.89745C36.1728 2.81736 36.1236 2.78194 36.0644 2.79015C36.0323 2.79529 36.0012 2.80401 35.9711 2.81634C35.941 2.82866 35.9224 2.8266 35.9151 2.80915C35.9094 2.79529 35.927 2.7804 35.9685 2.76294C36.0033 2.74908 36.0624 2.72597 36.1474 2.69414C36.2319 2.66231 36.2858 2.64178 36.3081 2.63253C36.3273 2.62483 36.375 2.60378 36.4513 2.56938C36.5275 2.53499 36.584 2.51034 36.6203 2.49545C36.6566 2.48056 36.6773 2.48005 36.683 2.49391C36.6903 2.51085 36.6815 2.52472 36.6566 2.53447C36.6317 2.54474 36.6063 2.55809 36.5793 2.57503C36.5254 2.60892 36.5145 2.67053 36.5456 2.75986C36.5658 2.81736 36.64 2.99911 36.7676 3.3051L36.9563 3.75588C37.0838 4.06136 37.1658 4.24722 37.201 4.31242C37.2394 4.38481 37.2907 4.41254 37.3561 4.39611C37.4084 4.38276 37.4535 4.36838 37.4909 4.35298C37.5184 4.34169 37.535 4.34323 37.5407 4.35657C37.5479 4.37352 37.535 4.38892 37.5023 4.40227C37.437 4.42897 37.3566 4.4608 37.2612 4.49674C37.1663 4.53267 37.1108 4.55372 37.0953 4.5604C37.0797 4.56707 37.0315 4.58812 36.9506 4.62406C36.8697 4.66 36.8101 4.68619 36.7722 4.70159C36.7375 4.71596 36.7167 4.71442 36.71 4.69697C36.7048 4.68516 36.7209 4.66976 36.7572 4.65076C36.7816 4.6369 36.8064 4.62355 36.8318 4.61123C36.8697 4.58556 36.877 4.53319 36.8536 4.45361C36.8303 4.37403 36.7567 4.18561 36.6327 3.88834L36.6333 3.88937Z" fill="white"/>
<path d="M38.5974 3.98276L37.593 2.44355C37.5505 2.37783 37.5111 2.33368 37.4743 2.31006C37.4442 2.29106 37.4012 2.27925 37.3452 2.27463C37.3161 2.27258 37.2798 2.27515 37.2358 2.28336C37.214 2.28747 37.201 2.28131 37.1979 2.26488C37.1948 2.24845 37.2171 2.23613 37.2648 2.2274C37.3182 2.21764 37.3913 2.20584 37.4847 2.19146C37.578 2.17708 37.6381 2.16784 37.6656 2.16271C37.6822 2.15963 37.7294 2.14987 37.8082 2.13242C37.8865 2.11547 37.9513 2.10213 38.0032 2.09237C38.0452 2.08467 38.068 2.08878 38.0711 2.10521C38.0742 2.12164 38.0618 2.13242 38.0343 2.13704C37.9809 2.14679 37.9467 2.15963 37.9306 2.17554C37.9145 2.19146 37.9088 2.21251 37.9135 2.23767C37.9187 2.26693 37.9529 2.33265 38.0161 2.43584L38.7203 3.58692L38.7312 3.58486C38.8157 3.16335 38.9121 2.67766 39.0205 2.1278C39.0288 2.07954 39.0304 2.04411 39.0267 2.02255C39.0215 1.99534 39.0055 1.97993 38.9785 1.97634C38.951 1.97275 38.9147 1.97531 38.8686 1.98353C38.8375 1.98917 38.8204 1.98507 38.8178 1.97018C38.8147 1.95221 38.8385 1.93835 38.8898 1.92859C38.9448 1.91832 39.006 1.90857 39.0739 1.89933C39.1413 1.88957 39.1771 1.88495 39.1807 1.88393C39.1937 1.88136 39.2321 1.87314 39.2958 1.85877C39.3596 1.84439 39.4068 1.83412 39.4384 1.82848C39.4768 1.82129 39.4981 1.82591 39.5007 1.84234C39.5038 1.85877 39.4903 1.86955 39.4612 1.87468C39.4042 1.88495 39.3612 1.90395 39.3327 1.93219C39.2938 1.96915 39.258 2.06054 39.2243 2.20584C39.1906 2.35113 39.1273 2.61708 39.0345 3.00471L38.8235 3.90318C38.7996 3.9997 38.7851 4.05772 38.7789 4.07774C38.7675 4.10803 38.7524 4.12497 38.7343 4.12805C38.7177 4.13113 38.7001 4.12189 38.6809 4.10136C38.6684 4.08647 38.6415 4.04642 38.5984 3.98122L38.5974 3.98276Z" fill="white"/>
<path d="M40.2681 3.14413L40.2946 2.6569C40.3122 2.32678 40.321 2.13065 40.3205 2.06956C40.3195 1.98074 40.2827 1.9258 40.209 1.90526C40.1831 1.89859 40.1468 1.89346 40.1007 1.8914C40.069 1.88986 40.0535 1.88062 40.0545 1.86419C40.0555 1.84776 40.0763 1.84057 40.1173 1.84263C40.1733 1.84571 40.249 1.85084 40.3449 1.85906C40.4408 1.86727 40.4989 1.87138 40.5196 1.87241C40.9614 1.89602 41.1942 1.90732 41.2186 1.9068C41.2673 1.90578 41.3078 1.90218 41.3399 1.89654C41.3721 1.89089 41.3871 1.88781 41.385 1.88781C41.3964 1.88832 41.4011 1.89705 41.4006 1.91348C41.4006 1.91553 41.397 1.93196 41.3897 1.96277C41.3819 1.99922 41.3757 2.04235 41.37 2.09215C41.3643 2.14195 41.356 2.20253 41.3446 2.27389C41.3399 2.29392 41.3295 2.30367 41.315 2.30265C41.3021 2.30213 41.2943 2.29135 41.2927 2.27081C41.2912 2.25028 41.2896 2.23077 41.2891 2.21228C41.2881 2.1938 41.2855 2.17686 41.2803 2.16197C41.2606 2.10704 41.1999 2.07058 41.0978 2.0521C41.0345 2.04132 40.9018 2.03054 40.6995 2.01975C40.6866 2.01924 40.6793 2.02797 40.6783 2.04645L40.6404 2.74675C40.6394 2.76728 40.6451 2.77755 40.6586 2.77807C40.9153 2.79141 41.0646 2.79758 41.1081 2.79655C41.1403 2.79655 41.1647 2.79501 41.1818 2.79193C41.2103 2.78628 41.2315 2.77601 41.2455 2.76215C41.2694 2.73956 41.285 2.72826 41.2922 2.72878C41.3052 2.72929 41.3114 2.73699 41.3109 2.75188C41.3109 2.75394 41.3067 2.7719 41.2995 2.80682C41.2917 2.84892 41.2844 2.89769 41.2777 2.95263C41.2647 3.05736 41.2575 3.11897 41.2564 3.13745C41.2544 3.17237 41.245 3.18982 41.2284 3.1888C41.2113 3.18777 41.2035 3.17801 41.2046 3.1585C41.2056 3.13899 41.2035 3.10716 41.1984 3.0625C41.187 2.99883 41.1361 2.96033 41.047 2.94595C40.9946 2.93774 40.8618 2.92798 40.6487 2.91669C40.6373 2.91617 40.6316 2.9249 40.6306 2.94338L40.5958 3.59131C40.5943 3.68937 40.613 3.75355 40.6513 3.78436C40.6902 3.81516 40.7794 3.83416 40.9199 3.84186C41.047 3.84853 41.1356 3.84186 41.1854 3.82235C41.2523 3.79616 41.2984 3.73045 41.3228 3.62417C41.3301 3.59696 41.341 3.58361 41.356 3.58412C41.371 3.58515 41.3773 3.60209 41.3757 3.63495C41.3695 3.74739 41.3518 3.84956 41.3228 3.94043C41.3119 3.97329 41.2974 3.9928 41.2803 3.99948C41.2632 4.00615 41.2258 4.00769 41.1678 4.00461C41.0055 3.99588 40.8447 3.98459 40.6845 3.97072C40.5243 3.95686 40.4278 3.94865 40.3941 3.94711C40.3775 3.94608 40.3247 3.94505 40.236 3.943C40.1473 3.94095 40.0825 3.93889 40.0415 3.93684C40.0042 3.93479 39.9861 3.92452 39.9871 3.90603C39.9876 3.8932 40.0089 3.88601 40.0498 3.88447C40.0778 3.88242 40.1058 3.88088 40.1344 3.88036C40.1779 3.87318 40.2075 3.82389 40.2235 3.7325C40.2365 3.66114 40.2521 3.4645 40.2692 3.14362L40.2681 3.14413Z" fill="white"/>
<path d="M42.2525 3.36607L42.3966 2.89938C42.4941 2.58312 42.5501 2.39521 42.5646 2.33565C42.5853 2.2494 42.5625 2.18728 42.4962 2.1498C42.4728 2.13696 42.4386 2.12362 42.394 2.11027C42.3634 2.10102 42.351 2.0887 42.3556 2.07279C42.3603 2.05687 42.3826 2.05482 42.422 2.06663C42.4775 2.08357 42.549 2.10667 42.6377 2.13645C42.7264 2.16623 42.7756 2.18266 42.7865 2.18574C42.8166 2.19498 42.8809 2.21295 42.9794 2.23965C43.0774 2.26634 43.1402 2.2838 43.1666 2.29201C43.3828 2.35722 43.5353 2.44501 43.6239 2.5554C43.6592 2.59904 43.6846 2.65602 43.7002 2.72636C43.7209 2.81005 43.7193 2.89271 43.6939 2.97383C43.6302 3.18073 43.4513 3.34297 43.1573 3.46054C43.2765 3.76346 43.3429 3.92826 43.3559 3.95547C43.4196 4.11566 43.4751 4.24196 43.5233 4.33386C43.5902 4.46427 43.6716 4.55463 43.7676 4.60494C43.7883 4.61315 43.8085 4.62137 43.8277 4.62907C43.8567 4.64191 43.8697 4.65423 43.8661 4.66655C43.8604 4.68401 43.8407 4.68811 43.807 4.67785L43.5524 4.60083C43.4238 4.56181 43.3336 4.51612 43.2812 4.46375C43.2081 4.39136 43.1256 4.2245 43.0349 3.96317C42.9913 3.83225 42.9405 3.68336 42.883 3.51702C42.8762 3.50162 42.8617 3.49032 42.8405 3.48365L42.6076 3.41331C42.5931 3.4092 42.5838 3.41382 42.5796 3.42768L42.5682 3.46465C42.4759 3.76294 42.4225 3.95239 42.4075 4.03197C42.3904 4.1249 42.4106 4.18343 42.4671 4.20859C42.5185 4.23169 42.561 4.24863 42.5952 4.2589C42.6165 4.26557 42.6253 4.27584 42.6206 4.2897C42.6154 4.30716 42.5947 4.31075 42.5589 4.29997C42.4982 4.28149 42.4189 4.25633 42.3204 4.22347C42.2219 4.19062 42.171 4.17419 42.1674 4.17265C42.155 4.16905 42.1073 4.1557 42.0243 4.13363C41.9413 4.11155 41.8796 4.09409 41.8382 4.08177C41.8024 4.07099 41.7873 4.05662 41.793 4.03916C41.7967 4.02684 41.819 4.02478 41.8594 4.033C41.8874 4.03762 41.9149 4.04327 41.9424 4.04943C41.9859 4.05302 42.0269 4.01246 42.0653 3.92724C42.0953 3.861 42.1581 3.67412 42.253 3.36659L42.2525 3.36607ZM42.8965 2.39829L42.6476 3.20435C42.6393 3.23105 42.6424 3.24902 42.6569 3.25928C42.7015 3.29214 42.7663 3.32141 42.8524 3.34759C42.9379 3.37326 43.0059 3.37788 43.0562 3.35991C43.1847 3.31576 43.2786 3.19922 43.3372 3.01028C43.389 2.84239 43.3802 2.69966 43.3113 2.58209C43.2553 2.49173 43.1775 2.43115 43.0774 2.40086C42.9919 2.37519 42.939 2.36492 42.9198 2.37057C42.9094 2.37313 42.9016 2.38238 42.8965 2.39829Z" fill="white"/>
<path d="M44.2208 5.04941C44.0808 4.96778 43.976 4.87845 43.9055 4.78193C43.8827 4.75112 43.8832 4.71518 43.9081 4.67411C43.9595 4.58837 44.0253 4.4862 44.1062 4.36812C44.1342 4.32858 44.156 4.31369 44.172 4.32294C44.1881 4.33218 44.1881 4.35066 44.172 4.37736C44.1523 4.41073 44.1352 4.4554 44.1212 4.51187C44.0735 4.70081 44.1409 4.84816 44.3224 4.95443C44.4235 5.01348 44.5226 5.03145 44.6185 5.00834C44.703 4.98678 44.7658 4.94108 44.8078 4.87075C44.8866 4.7388 44.8835 4.56527 44.7989 4.35066L44.7393 4.19972C44.6112 3.87627 44.6045 3.61802 44.7191 3.42549C44.7979 3.29354 44.9135 3.21499 45.067 3.19086C45.22 3.16673 45.3797 3.20267 45.5451 3.29919C45.6498 3.36029 45.7483 3.43627 45.8417 3.52714C45.8603 3.54665 45.866 3.56257 45.8583 3.57541C45.8603 3.57233 45.8417 3.59954 45.8028 3.65755C45.7639 3.71557 45.7224 3.7818 45.6778 3.85676C45.6493 3.9045 45.6265 3.92299 45.6089 3.91272C45.5928 3.90348 45.5933 3.88448 45.6104 3.85573C45.6415 3.80336 45.6519 3.73867 45.6415 3.66166C45.6255 3.54717 45.5606 3.45681 45.4481 3.39109C45.3595 3.33924 45.276 3.32127 45.1977 3.33667C45.1194 3.35207 45.0582 3.39622 45.0146 3.46964C44.9815 3.5256 44.968 3.58875 44.9742 3.66012C44.9804 3.73148 45.011 3.83211 45.0655 3.96303L45.1033 4.05237C45.1837 4.2449 45.2262 4.40457 45.2314 4.53087C45.2366 4.65717 45.2049 4.77782 45.1365 4.89231C45.0292 5.07252 44.8715 5.16647 44.6626 5.17571C44.5226 5.18187 44.3753 5.13978 44.2208 5.04993V5.04941Z" fill="white"/>
<path d="M46.4515 5.78089L45.9978 5.35578C45.9895 5.34808 45.9786 5.34808 45.964 5.35475L45.5788 5.53958C45.5072 5.5745 45.458 5.60581 45.431 5.63405C45.3911 5.67564 45.3983 5.72184 45.4528 5.77267L45.4834 5.80142C45.5036 5.82042 45.5088 5.83531 45.4984 5.84609C45.4855 5.85944 45.4678 5.85533 45.4445 5.83377C45.4227 5.81323 45.3875 5.77832 45.3387 5.72903C45.29 5.67923 45.2552 5.64483 45.235 5.62584C45.1132 5.51956 45.0312 5.44666 44.9892 5.40712C44.9633 5.38299 44.9571 5.364 44.9701 5.35065C44.9804 5.33987 44.9934 5.34192 45.01 5.35732C45.0318 5.37786 45.0541 5.39583 45.0769 5.41226C45.1256 5.44768 45.1785 5.46154 45.2366 5.45487C45.2827 5.44974 45.3449 5.4292 45.4232 5.39275L47.1421 4.60671C47.2152 4.57334 47.2598 4.5641 47.2759 4.5795C47.2909 4.59336 47.2873 4.63084 47.265 4.69143C47.0918 5.11961 46.8658 5.69001 46.5858 6.40263C46.5158 6.589 46.5054 6.71787 46.5552 6.78974C46.5743 6.81798 46.6003 6.84725 46.6329 6.87805C46.6506 6.89448 46.6542 6.90834 46.6438 6.91912C46.636 6.92734 46.6241 6.92631 46.608 6.91604C46.592 6.90577 46.566 6.88472 46.5308 6.85135C46.3628 6.69374 46.2358 6.57257 46.1502 6.48734C46.1108 6.44781 46.0958 6.42368 46.1046 6.41393C46.1149 6.40314 46.13 6.40622 46.1502 6.42265C46.1782 6.436 46.1989 6.42676 46.2129 6.39339L46.4582 5.81426C46.4629 5.80091 46.4608 5.79013 46.4515 5.78089ZM46.1346 5.29314L46.509 5.64381C46.5183 5.65253 46.5256 5.65202 46.5308 5.64124L46.8232 4.97226C46.832 4.95737 46.8346 4.94865 46.8305 4.94454C46.8253 4.9394 46.8155 4.94146 46.8009 4.95121L46.1403 5.27107C46.1284 5.27774 46.1269 5.28493 46.1352 5.29263L46.1346 5.29314Z" fill="white"/>
<path d="M48.0547 6.82335L47.6435 7.09238C47.4677 7.2079 47.3531 7.28594 47.3002 7.32752C47.2204 7.38862 47.1784 7.43637 47.1737 7.47025C47.1654 7.53135 47.2105 7.63557 47.309 7.78343C47.4029 7.92359 47.4848 7.99958 47.5553 8.01087C47.6155 8.02012 47.6756 8.00985 47.7358 7.97904C47.7612 7.96672 47.7783 7.96775 47.7876 7.98161C47.7959 7.99393 47.7866 8.00882 47.7601 8.02628C47.6668 8.08737 47.5693 8.13461 47.4682 8.16747C47.4293 8.17979 47.3977 8.17363 47.3728 8.15001C47.3624 8.14128 47.3407 8.11202 47.308 8.06273C47.2255 7.93951 47.141 7.80756 47.0539 7.6674C46.9668 7.52724 46.9061 7.43174 46.8724 7.38092C46.8631 7.36705 46.833 7.32444 46.7817 7.25256C46.7304 7.18069 46.6935 7.1278 46.6707 7.09392C46.65 7.06311 46.6474 7.04258 46.663 7.03231C46.6738 7.02512 46.692 7.03744 46.7179 7.06928C46.7366 7.09032 46.7542 7.11189 46.7713 7.13396C46.803 7.16426 46.8605 7.15861 46.9445 7.11702C47.0104 7.08519 47.1789 6.97994 47.4495 6.80281L47.8607 6.53379C48.1392 6.35101 48.3035 6.24165 48.3528 6.20469C48.4083 6.16361 48.4358 6.12151 48.4358 6.07736C48.4347 6.04245 48.415 5.99573 48.3756 5.9372C48.358 5.91102 48.3564 5.89356 48.3704 5.88432C48.3844 5.87508 48.4026 5.8874 48.4254 5.92128C48.4524 5.96133 48.4902 6.02089 48.5395 6.09944C48.5887 6.17799 48.6188 6.22574 48.6302 6.24268C48.6406 6.25808 48.6738 6.30532 48.7303 6.3849C48.7868 6.46447 48.8257 6.51992 48.8475 6.55278C48.8693 6.58513 48.8729 6.60618 48.8589 6.6149C48.8449 6.62363 48.8288 6.6149 48.8101 6.58718C48.7873 6.5533 48.765 6.52454 48.7427 6.50144C48.6981 6.45523 48.6349 6.45575 48.5524 6.50298C48.499 6.53379 48.3331 6.64006 48.0541 6.82284L48.0547 6.82335Z" fill="white"/>
<path d="M35.7835 20.3973L35.9328 20.0445C36.0547 19.7565 36.1257 19.585 36.1449 19.5306C36.1729 19.4516 36.1573 19.391 36.0982 19.3494C36.0775 19.335 36.0469 19.3196 36.0064 19.3027C35.979 19.2914 35.9681 19.278 35.9743 19.2636C35.9805 19.2493 36.0013 19.2493 36.037 19.2642C36.0842 19.2837 36.1501 19.3124 36.2341 19.3504C36.3186 19.3884 36.3704 19.4115 36.3896 19.4192C36.4073 19.4264 36.455 19.4449 36.5312 19.4736C36.6074 19.5024 36.6613 19.5234 36.6924 19.5363C36.7282 19.5512 36.7433 19.566 36.737 19.5804C36.7308 19.5948 36.7147 19.5969 36.6888 19.5861C36.6691 19.5779 36.6447 19.5707 36.6152 19.564C36.5556 19.5506 36.5063 19.584 36.4664 19.6641C36.4404 19.716 36.3663 19.8864 36.2444 20.1744L36.1008 20.5128C35.9764 20.8059 35.9562 21.0308 36.0391 21.1864C36.0925 21.2865 36.1802 21.3615 36.302 21.4123C36.4384 21.4688 36.569 21.4724 36.694 21.4215C36.7796 21.3871 36.8563 21.3183 36.9247 21.2162C36.9693 21.1474 37.0243 21.0354 37.0896 20.8809L37.2177 20.5785C37.3401 20.29 37.4106 20.1185 37.4298 20.0641C37.4578 19.9845 37.4422 19.9244 37.3831 19.8828C37.3624 19.8684 37.3344 19.8541 37.2986 19.8392C37.2711 19.8279 37.2602 19.8145 37.2664 19.8002C37.2727 19.7858 37.2929 19.7853 37.3271 19.8002C37.3987 19.8299 37.491 19.871 37.6045 19.9239C37.6092 19.926 37.6481 19.9403 37.7207 19.9681C37.7933 19.9953 37.8482 20.0168 37.8856 20.0322C37.9198 20.0466 37.9338 20.061 37.9276 20.0754C37.9213 20.0897 37.9037 20.0908 37.8747 20.0789C37.855 20.0707 37.8306 20.0635 37.801 20.0569C37.7414 20.0435 37.6922 20.0769 37.6527 20.157C37.6268 20.2088 37.5532 20.3788 37.4308 20.6668L37.3214 20.9251C37.2519 21.0893 37.1824 21.2167 37.1135 21.307C37.0186 21.4323 36.9076 21.515 36.7816 21.5555C36.596 21.6146 36.4021 21.6022 36.2009 21.5186C35.9634 21.42 35.8068 21.2896 35.7301 21.1268C35.6399 20.9379 35.658 20.6945 35.784 20.3967L35.7835 20.3973Z" fill="white"/>
<path d="M38.8925 21.5049L38.3102 21.4141C38.2998 21.4125 38.291 21.4182 38.2833 21.431L38.0831 21.7791C38.0458 21.8438 38.0245 21.8946 38.0188 21.9306C38.0105 21.9839 38.0411 22.0163 38.1106 22.0271L38.15 22.0332C38.1759 22.0373 38.1878 22.0461 38.1858 22.0599C38.1832 22.0774 38.1671 22.0835 38.137 22.0789C38.109 22.0748 38.0629 22.0661 37.9981 22.0533C37.9333 22.0404 37.8876 22.0322 37.8617 22.0281C37.7093 22.0096 37.6061 21.9963 37.5521 21.9875C37.519 21.9824 37.5039 21.9711 37.5065 21.9542C37.5086 21.9403 37.52 21.9352 37.5413 21.9383C37.5693 21.9424 37.5962 21.9449 37.6232 21.9454C37.6802 21.9475 37.729 21.93 37.7704 21.8941C37.8036 21.8659 37.841 21.8166 37.8819 21.7473L38.7961 20.225C38.835 20.1603 38.865 20.1295 38.8858 20.1331C38.905 20.1362 38.9221 20.167 38.9381 20.226C39.0346 20.6511 39.1663 21.2149 39.3327 21.9177C39.3789 22.1 39.4406 22.2057 39.5178 22.2355C39.5479 22.2473 39.5842 22.2566 39.6257 22.2632C39.6485 22.2668 39.6584 22.2756 39.6563 22.2894C39.6547 22.2997 39.6449 22.3053 39.6267 22.3059C39.6086 22.3064 39.577 22.3033 39.5318 22.2966C39.3156 22.2627 39.1518 22.2355 39.0387 22.2145C38.9869 22.2047 38.962 22.1934 38.9635 22.1816C38.9656 22.1677 38.9791 22.1621 39.004 22.1642C39.033 22.16 39.0444 22.1411 39.0372 22.1082L38.9153 21.527C38.9122 21.5142 38.9044 21.5065 38.892 21.5049H38.8925ZM38.3828 21.2929L38.8635 21.3679C38.8754 21.3699 38.8806 21.3653 38.879 21.3545L38.7458 20.6789C38.7447 20.6629 38.7416 20.6542 38.7364 20.6537C38.7297 20.6527 38.723 20.6593 38.7173 20.6747L38.3755 21.2734C38.3704 21.2847 38.3724 21.2914 38.3833 21.2929H38.3828Z" fill="white"/>
<path d="M40.5938 21.0462L40.6146 21.5067C40.6234 21.7039 40.6322 21.8338 40.6405 21.8959C40.6519 21.9899 40.67 22.0463 40.696 22.0664C40.7416 22.1028 40.8489 22.1172 41.0185 22.1095C41.1787 22.1023 41.2809 22.0736 41.3244 22.0222C41.3612 21.9786 41.382 21.9252 41.3861 21.862C41.3882 21.8358 41.3975 21.822 41.4136 21.8215C41.4276 21.821 41.4354 21.8353 41.4369 21.8651C41.4416 21.9698 41.4333 22.0705 41.411 22.1675C41.4022 22.2045 41.382 22.2276 41.3503 22.2358C41.3384 22.2399 41.3037 22.243 41.2477 22.2455C41.1066 22.2517 40.9578 22.2558 40.8007 22.2579C40.6436 22.2594 40.5363 22.262 40.4782 22.2645C40.4621 22.2651 40.4129 22.2687 40.3289 22.2753C40.2454 22.2815 40.1842 22.2856 40.1453 22.2876C40.11 22.2892 40.0919 22.2815 40.0914 22.264C40.0909 22.2517 40.11 22.243 40.1484 22.2378C40.1749 22.2332 40.2008 22.2291 40.2272 22.2266C40.2672 22.2158 40.2905 22.167 40.2972 22.0792C40.3029 22.0109 40.2988 21.8251 40.2848 21.5216L40.264 21.0611C40.25 20.7489 40.2397 20.5641 40.2335 20.5066C40.2272 20.4424 40.2055 20.3993 40.1692 20.3783C40.1401 20.3623 40.0924 20.3557 40.0255 20.3588C39.9955 20.3603 39.9804 20.3531 39.9794 20.3372C39.9789 20.3213 39.9975 20.3131 40.0364 20.311C40.082 20.309 40.1489 20.3074 40.2376 20.3059C40.3257 20.3043 40.3797 20.3033 40.3989 20.3028C40.4165 20.3018 40.4715 20.2982 40.5637 20.2915C40.656 20.2848 40.7209 20.2807 40.7577 20.2787C40.7945 20.2766 40.8137 20.2838 40.8142 20.2997C40.8147 20.3156 40.7997 20.3238 40.7675 20.3254C40.7286 20.3269 40.6944 20.331 40.6649 20.3377C40.6052 20.3511 40.5752 20.4019 40.5741 20.4912C40.5731 20.5487 40.5798 20.7341 40.5943 21.0462H40.5938Z" fill="white"/>
<path d="M42.0866 21.3347L41.9886 20.8845C41.9222 20.579 41.8807 20.3988 41.8652 20.3428C41.8424 20.2622 41.8024 20.2206 41.7459 20.2181C41.7153 20.2181 41.6847 20.2206 41.6547 20.2268C41.6246 20.2335 41.6075 20.2278 41.6038 20.2109C41.6007 20.197 41.6199 20.1857 41.6614 20.177C41.6956 20.1698 41.7553 20.1585 41.8393 20.1431C41.9233 20.1277 41.9767 20.118 41.999 20.1128C42.0181 20.1087 42.0658 20.0974 42.1431 20.0779C42.2198 20.0589 42.2769 20.0456 42.3127 20.0374C42.349 20.0297 42.3687 20.0327 42.3712 20.0461C42.3749 20.063 42.3645 20.0743 42.3396 20.0795C42.3147 20.0846 42.2888 20.0928 42.2608 20.1041C42.2053 20.1267 42.1841 20.1821 42.1981 20.2704C42.2069 20.3274 42.2447 20.5087 42.3111 20.8141L42.4091 21.2644C42.4755 21.5699 42.5201 21.7563 42.5413 21.823C42.5647 21.8964 42.6077 21.9313 42.671 21.9267C42.7218 21.9231 42.7664 21.917 42.8037 21.9093C42.8312 21.9036 42.8462 21.9072 42.8493 21.9211C42.853 21.938 42.8384 21.9503 42.8058 21.957C42.7404 21.9709 42.6601 21.9868 42.5657 22.0042C42.4713 22.0217 42.4164 22.032 42.4008 22.0356C42.3852 22.0386 42.337 22.0504 42.2556 22.0705C42.1742 22.0905 42.1146 22.1049 42.0767 22.1126C42.042 22.1198 42.0233 22.1151 42.0197 22.0982C42.0171 22.0864 42.0342 22.0746 42.0715 22.0628C42.0964 22.054 42.1218 22.0458 42.1473 22.0386C42.1867 22.0212 42.2027 21.9739 42.1944 21.8959C42.1867 21.8184 42.1504 21.631 42.0855 21.3337L42.0866 21.3347Z" fill="white"/>
<path d="M43.7838 20.8353L43.3643 19.8455L43.005 20.0062C42.8779 20.0626 42.809 20.1186 42.7981 20.1746C42.7898 20.2141 42.7882 20.248 42.7924 20.2762C42.7955 20.2978 42.7908 20.3111 42.7778 20.3163C42.7633 20.3224 42.7504 20.3127 42.7395 20.287C42.7208 20.2434 42.699 20.1437 42.6731 19.9882C42.6684 19.9543 42.6716 19.9348 42.683 19.9302C42.6876 19.9281 42.7027 19.9271 42.7276 19.9271C42.7524 19.9271 42.7768 19.9235 42.8001 19.9153C42.8914 19.887 42.9744 19.8573 43.049 19.8259L44.0145 19.425C44.0778 19.3988 44.1322 19.3716 44.1784 19.3444C44.224 19.3166 44.2442 19.3043 44.2396 19.3064C44.2525 19.3007 44.266 19.3151 44.2805 19.3485C44.2873 19.3644 44.3049 19.4096 44.3339 19.4845C44.3624 19.559 44.3811 19.6088 44.3899 19.6334C44.3982 19.6581 44.3972 19.6729 44.3858 19.6776C44.3713 19.6837 44.3552 19.6714 44.3386 19.6406L44.3251 19.6149C44.281 19.5333 44.1659 19.5277 43.9803 19.599L43.6702 19.7192L44.0897 20.709C44.2058 20.9827 44.2826 21.1531 44.321 21.2209C44.364 21.2958 44.4143 21.3261 44.4713 21.3118C44.5211 21.2984 44.5641 21.2846 44.5999 21.2697C44.6258 21.2589 44.6419 21.2599 44.6471 21.2727C44.6538 21.2887 44.6419 21.3035 44.6108 21.3164C44.5491 21.3421 44.4729 21.3723 44.3827 21.4067C44.2924 21.4417 44.2396 21.4617 44.225 21.4678C44.2105 21.474 44.1649 21.494 44.0887 21.5284C44.0124 21.5628 43.9564 21.5875 43.9207 21.6024C43.888 21.6157 43.8683 21.6147 43.8616 21.5982C43.8569 21.587 43.8714 21.5726 43.9061 21.5541C43.929 21.5407 43.9523 21.5284 43.9761 21.5166C44.0104 21.493 44.015 21.4391 43.9907 21.3544C43.9689 21.2804 43.9004 21.1069 43.7848 20.8348L43.7838 20.8353Z" fill="white"/>
<path d="M45.9688 19.714L45.4876 20.0513C45.4788 20.0574 45.4767 20.0677 45.4804 20.0821L45.5825 20.4692C45.6017 20.5411 45.6219 20.5924 45.6432 20.6222C45.6748 20.6663 45.7194 20.6684 45.777 20.6278L45.8091 20.6053C45.8309 20.5904 45.8454 20.5883 45.8537 20.5996C45.8641 20.614 45.8568 20.6294 45.8324 20.6468C45.8096 20.6628 45.7702 20.6889 45.7147 20.7244C45.6592 20.7603 45.6209 20.7855 45.5991 20.8009C45.4772 20.8928 45.3938 20.9544 45.3492 20.9857C45.3217 21.0047 45.303 21.0073 45.2927 20.9929C45.2844 20.9816 45.289 20.9698 45.3061 20.9575C45.3289 20.9415 45.3502 20.9241 45.3699 20.9061C45.4119 20.8681 45.4347 20.8219 45.4394 20.7675C45.443 20.7244 45.4352 20.6633 45.4161 20.5852L44.9976 18.8632C44.98 18.7903 44.9795 18.7477 44.9971 18.7354C45.0132 18.7241 45.0474 18.7344 45.0998 18.7657C45.4684 19.0034 45.9605 19.3161 46.5749 19.7042C46.7362 19.8028 46.8549 19.8362 46.9317 19.8038C46.9618 19.7915 46.9939 19.773 47.0287 19.7489C47.0473 19.7355 47.0608 19.735 47.0691 19.7463C47.0753 19.755 47.0722 19.7658 47.0598 19.7787C47.0473 19.7915 47.0224 19.811 46.9851 19.8372C46.8067 19.9625 46.6698 20.0564 46.5744 20.1191C46.5304 20.1478 46.5044 20.1576 46.4977 20.1473C46.4894 20.136 46.4951 20.1226 46.5143 20.1067C46.5324 20.0836 46.5267 20.0626 46.4987 20.0441L46.002 19.7124C45.9906 19.7058 45.9797 19.7058 45.9698 19.7124L45.9688 19.714ZM45.4544 19.9142L45.8516 19.6359C45.8615 19.6287 45.862 19.6221 45.8532 19.6154L45.2812 19.2237C45.2693 19.2129 45.261 19.2088 45.2569 19.2119C45.2512 19.216 45.2512 19.2252 45.2579 19.2401L45.4352 19.905C45.4394 19.9168 45.4461 19.9198 45.4544 19.9137V19.9142Z" fill="white"/>
<path d="M47.2241 18.5036L46.4214 17.7818L46.1642 18.0775C46.073 18.1822 46.0346 18.2618 46.0486 18.3167C46.0579 18.3558 46.0709 18.3876 46.087 18.4112C46.0989 18.4292 46.1004 18.4436 46.0911 18.4538C46.0802 18.4656 46.0647 18.462 46.0439 18.443C46.0087 18.4112 45.9459 18.3301 45.8562 18.1997C45.8375 18.1709 45.8318 18.1519 45.8401 18.1432C45.8438 18.1391 45.8567 18.1324 45.8795 18.1216C45.9024 18.1114 45.9226 18.0975 45.9402 18.0806C46.0107 18.0164 46.0735 17.9548 46.1279 17.8957L46.8321 17.1282C46.8782 17.0779 46.9161 17.0306 46.9461 16.9865C46.9757 16.9423 46.9887 16.9223 46.9855 16.9264C46.9949 16.9161 47.0135 16.9233 47.0405 16.9475C47.0535 16.9593 47.0887 16.9926 47.1468 17.0481C47.2049 17.1035 47.2427 17.141 47.2609 17.1595C47.279 17.1785 47.2842 17.1924 47.2759 17.2011C47.265 17.2129 47.2458 17.2083 47.2173 17.1872L47.194 17.1698C47.1188 17.1143 47.0125 17.1575 46.8746 17.3002L46.6449 17.5394L47.4475 18.2608C47.6695 18.4605 47.8121 18.5827 47.8753 18.6279C47.9464 18.6777 48.005 18.6843 48.0506 18.6474C48.09 18.6145 48.1232 18.5842 48.1491 18.5555C48.1683 18.5349 48.1828 18.5293 48.1932 18.5385C48.2061 18.5503 48.2015 18.5683 48.1792 18.593C48.1341 18.6422 48.0781 18.7013 48.0112 18.7706C47.9443 18.8399 47.9049 18.8805 47.8945 18.8918C47.8841 18.9031 47.8515 18.9411 47.797 19.0042C47.7426 19.0674 47.7027 19.113 47.6762 19.1418C47.6524 19.1675 47.6342 19.1747 47.6212 19.1628C47.6119 19.1546 47.6192 19.1351 47.6425 19.1043C47.6575 19.0828 47.6736 19.0617 47.6902 19.0407C47.711 19.0052 47.6923 18.9539 47.6342 18.8877C47.5829 18.8296 47.4465 18.7013 47.2261 18.5031L47.2241 18.5036Z" fill="white"/>
<path d="M34.5676 20.7716L34.354 20.308C34.4893 20.3182 34.6288 20.3008 34.7714 20.2546C34.9658 20.1889 35.1271 20.0759 35.2552 19.9157C35.4454 19.6775 35.5196 19.4275 35.4771 19.1661C35.4346 18.9043 35.2878 18.6758 35.0379 18.4797C34.76 18.262 34.4701 18.1814 34.1683 18.2384C33.9153 18.2872 33.7105 18.4104 33.5529 18.6076C33.3823 18.8211 33.3014 19.0542 33.3112 19.3063C33.3211 19.6056 33.4657 19.8649 33.7452 20.0841C33.8671 20.1796 33.9895 20.2469 34.1134 20.2859C34.1134 20.2859 34.3379 20.7059 34.5686 20.7721L34.5676 20.7716ZM33.9029 20.041C33.7271 19.9034 33.6327 19.7222 33.6187 19.4978C33.6042 19.257 33.6908 19.0198 33.878 18.7857C34.0563 18.5629 34.2425 18.4356 34.4359 18.4048C34.6034 18.3781 34.762 18.4232 34.9114 18.5403C35.069 18.664 35.1561 18.8304 35.1732 19.0393C35.1909 19.276 35.1069 19.5106 34.9207 19.7432C34.7097 20.0071 34.5007 20.1488 34.2949 20.1673C34.1569 20.1796 34.0268 20.1375 33.9034 20.041H33.9029Z" fill="white"/>
<path d="M44.7076 18.9203C44.7712 18.9203 44.8228 18.8693 44.8228 18.8064C44.8228 18.7434 44.7712 18.6924 44.7076 18.6924C44.6441 18.6924 44.5925 18.7434 44.5925 18.8064C44.5925 18.8693 44.6441 18.9203 44.7076 18.9203Z" fill="white"/>
<path d="M45.1178 18.602C45.1814 18.602 45.2329 18.5509 45.2329 18.488C45.2329 18.4251 45.1814 18.374 45.1178 18.374C45.0542 18.374 45.0027 18.4251 45.0027 18.488C45.0027 18.5509 45.0542 18.602 45.1178 18.602Z" fill="white"/>
</g>
<defs>
<clipPath id="clip0_12071_231190">
<rect width="56" height="24" fill="white"/>
</clipPath>
</defs>
</svg>
