<svg width="31" height="20" viewBox="0 0 31 20" fill="none" xmlns="http://www.w3.org/2000/svg">
<path d="M13.4333 14.8282H10.9221L12.4928 5.20264H15.0039L13.4333 14.8282Z" fill="#B4C2DE" fill-opacity="0.4"/>
<path d="M22.5365 5.43812C22.0412 5.24336 21.2556 5.02832 20.2841 5.02832C17.8042 5.02832 16.0579 6.33897 16.0472 8.2128C16.0266 9.59531 17.2975 10.3632 18.2481 10.8242C19.2196 11.2952 19.5499 11.6027 19.5499 12.0225C19.54 12.6674 18.7648 12.9646 18.0418 12.9646C17.0392 12.9646 16.502 12.8114 15.6856 12.4526L15.3549 12.2988L15.0035 14.4595C15.5925 14.7255 16.6776 14.9615 17.8042 14.9718C20.4392 14.9718 22.1546 13.6815 22.1749 11.6846C22.185 10.5888 21.5139 9.74924 20.067 9.06316C19.1887 8.62274 18.6508 8.32576 18.6508 7.87514C18.6611 7.46547 19.1058 7.04587 20.0972 7.04587C20.9136 7.02532 21.5135 7.21981 21.9679 7.41443L22.195 7.51665L22.5365 5.43812Z" fill="#B4C2DE" fill-opacity="0.4"/>
<path d="M25.874 11.4187C26.0808 10.8657 26.8766 8.72554 26.8766 8.72554C26.8662 8.74609 27.083 8.16236 27.207 7.80401L27.3825 8.6334C27.3825 8.6334 27.8581 10.9374 27.9613 11.4187C27.5689 11.4187 26.37 11.4187 25.874 11.4187ZM28.9738 5.20312H27.0314C26.4324 5.20312 25.9773 5.37706 25.7189 6.00176L21.9888 14.8286H24.6237C24.6237 14.8286 25.0575 13.6405 25.1508 13.3847C25.4398 13.3847 28.0031 13.3847 28.375 13.3847C28.447 13.7226 28.6746 14.8286 28.6746 14.8286H30.9997L28.9738 5.20312Z" fill="#B4C2DE" fill-opacity="0.4"/>
<path d="M8.82461 5.20264L6.3653 11.7664L6.09656 10.4352C5.64188 8.89913 4.21593 7.23026 2.62463 6.40046L4.87727 14.818H7.53282L11.48 5.20264H8.82461Z" fill="#B4C2DE" fill-opacity="0.4"/>
<path d="M4.08164 5.20264H0.0413339L0 5.39712C3.15169 6.1959 5.23899 8.12131 6.09657 10.4356L5.21826 6.01175C5.07366 5.39699 4.62928 5.22292 4.08164 5.20264Z" fill="#B4C2DE" fill-opacity="0.4"/>
</svg>
