<svg width="32" height="32" viewBox="0 0 32 32" fill="none" xmlns="http://www.w3.org/2000/svg">
    <path fill-rule="evenodd" clip-rule="evenodd" d="M27 11.4752C27 5.4697 26.5303 5 20.5249 5H11.4752C5.4697 5 5 5.4697 5 11.4752V20.5249C5 26.5298 5.4697 27 11.4752 27H20.5249C26.5303 27 27 26.5298 27 20.5243V11.4752ZM22.2317 10H20.2383L16.9535 13.7386L14.1134 10H10L14.9148 16.399L10.2567 21.7H12.2513L15.8465 17.6098L18.9885 21.7H23L17.8767 14.956L22.2317 10ZM20.6432 20.512H19.5386L12.3279 11.1256H13.5132L20.6432 20.512Z" fill="white"/>
</svg>
